<?xml version="1.0" encoding="utf-8"?>
<!-- Generator: Adobe Illustrator 19.2.1, SVG Export Plug-In . SVG Version: 6.00 Build 0)  -->
<svg version="1.1" id="Layer_1" xmlns="http://www.w3.org/2000/svg" xmlns:xlink="http://www.w3.org/1999/xlink" x="0px" y="0px"
	 viewBox="0 0 595.3 841.9" style="enable-background:new 0 0 595.3 841.9;" xml:space="preserve">
<style type="text/css">
	.st0{fill:none;}
	.st1{fill:#010101;}
	.st2{font-family:'MyriadPro-Regular';}
	.st3{font-size:14px;}
	.st4{font-size:36px;}
</style>
<path class="st0" d="M228,329h48v48h-48V329z M228,329h48v48h-48V329z M228,329h48v48h-48V329z"/>
<path class="st1" d="M302.8,710.6v-26.8c0-4-3.5-7.3-7.8-7.3s-7.8,3.3-7.8,7.3v17.9l40.8,38.1l16.5,4.8v-9.7L302.8,710.6z
	 M250.8,692.4l26,24.3l-31.2,18.2v9.7l41.6-12.2v26.8l-10.4,7.3v7.3L295,769l18.2,4.9v-7.3l-10.4-7.3v-18.1l29.8,27.9l6.6-6.2
	l-81.9-76.5L250.8,692.4z"/>
<path class="st1" d="M293,89.8"/>
<path class="st1" d="M347.1,140v-9.7L305.4,106V79.2c0-4-3.5-7.3-7.8-7.3c-4.3,0-7.8,3.3-7.8,7.3V106l-41.6,24.3v9.7l41.6-12.2v26.8
	l-10.4,7.3v7.3l18.2-4.9l18.2,4.9v-7.3l-10.4-7.3v-26.8L347.1,140z"/>
<rect x="80.2" y="244.4" class="st0" width="422.4" height="457.3"/>
<text transform="matrix(1 0 0 1 80.2228 254.3717)"><tspan x="0" y="0" class="st2 st3">6 арт-объектов: смартфоны или планшеты с черно-белой картинкой, </tspan><tspan x="0" y="16.8" class="st2 st3">содержащей элементы анимации.</tspan><tspan x="0" y="33.6" class="st2 st3">И</tspan><tspan x="10.1" y="33.6" class="st2 st3">нструментарий: html5 canvas / javascript. </tspan><tspan x="-0.3" y="67.2" class="st2 st3">Основная развилка восприятия: наблюдающие любой объект </tspan><tspan x="0" y="84" class="st2 st3">экспозиции делятся на считавших связь с неким основополагающим </tspan><tspan x="0" y="100.8" class="st2 st3">элементом it мира и несчитавших. Для первой категории </tspan><tspan x="0" y="117.6" class="st2 st3">восприятие происходит сквозь призму такого объекта it мира. Для </tspan><tspan x="0" y="134.4" class="st2 st3">второй категории ассоциативный ряд не определен такими </tspan><tspan x="0" y="151.2" class="st2 st3">рамками, однако рискует не развернуться вовсе без должного </tspan><tspan x="0" y="168" class="st2 st3">усилия. </tspan><tspan x="0" y="201.6" class="st2 st3">Далее развитие для первой категории. Для второй - непонятно. </tspan><tspan x="0" y="218.4" class="st2 st3">Ассоциативный ряд преломляется морфологическим эффектом </tspan><tspan x="0" y="235.2" class="st2 st3">(подменой или сдвигом) и визуализацией его или его аспекта. </tspan><tspan x="0" y="252" class="st2 st3">Морфологический &quot;чек-поинт&quot; обеспечивается названием </tspan><tspan x="0" y="268.8" class="st2 st3">арт-объекта. Он может быть проигнорирован, что, вероятно, </tspan><tspan x="0" y="285.6" class="st2 st3">приведет к резкому расширению ассоциативного слоя с риском </tspan><tspan x="0" y="302.4" class="st2 st3">потери интереса. </tspan><tspan x="0" y="336" class="st2 st3">Буквальный смысл it элемента – 1, его визуальное отображ</tspan><tspan x="360" y="336" class="st2 st3">е</tspan><tspan x="366.7" y="336" class="st2 st3">ние – 2, </tspan><tspan x="0" y="352.8" class="st2 st3">смысл с наложенным морфологическим эффектом – 3 и его </tspan><tspan x="0" y="369.6" class="st2 st3">визуальное отображение – 4 – образовывают </tspan><tspan x="0" y="386.4" class="st2 st3">межсловесное(-смысловое) натяжение, достижение которого и </tspan><tspan x="0" y="403.2" class="st2 st3">является кульминацией воспроиятия арт-объекта. </tspan></text>
<rect x="205.9" y="199" class="st0" width="183.5" height="42.5"/>
<text transform="matrix(1 0 0 1 205.896 224.5176)" class="st2 st4">it.primitives</text>
</svg>
