<svg id="Layer_2" data-name="Layer 2" xmlns="http://www.w3.org/2000/svg" viewBox="0 0 648.36 842.89"><title>bazart-annotation-text</title><rect x="52.58" y="0.5" width="595.28" height="841.89" style="fill:#fff;stroke:#fff;stroke-miterlimit:10"/><text x="54.58" y="0.5"/><text x="54.58" y="0.5"/><text x="54.58" y="0.5"/><path d="M228,329h48v48H228V329Zm0,0h48v48H228V329Zm0,0h48v48H228V329Z" transform="translate(54.58 0.5)" style="fill:none"/><path d="M300.42,704.34V686a5.36,5.36,0,0,0-10.69,0v12.25l27.89,26.06,11.29,3.29V721ZM264.8,691.92l17.77,16.61L261.24,721v6.66l28.5-8.32v18.3l-7.12,5v5l12.47-3.33,12.47,3.33v-5l-7.12-5V725.21l20.41,19.07,4.52-4.23-56-52.35Z" transform="translate(54.58 0.5)" style="fill:#010101"/><path d="M293,89.76" transform="translate(54.58 0.5)" style="fill:#010101"/><path d="M324.86,124v-6.42l-27.5-16.06V83.87a5.17,5.17,0,0,0-10.31,0v17.66l-27.5,16.06V124l27.5-8v17.66l-6.87,4.82v4.82l12-3.21,12,3.21v-4.82l-6.87-4.82V116Z" transform="translate(54.58 0.5)" style="fill:#010101"/><text x="54.58" y="0.5"/><text transform="translate(179.94 216.59)" style="font-size:13.600000381469727px;fill:#231f20;font-family:Myriad Pro">6 а<tspan x="16.41" y="0">р</tspan><tspan x="24.04" y="0">т</tspan><tspan x="29.17" y="0">-о</tspan><tspan x="40.81" y="0">б</tspan><tspan x="47.88" y="0">ъе</tspan><tspan x="62.57" y="0">к</tspan><tspan x="69.32" y="0">т</tspan><tspan x="74.64" y="0">ов: сма</tspan><tspan x="115.94" y="0">р</tspan><tspan x="123.57" y="0">т</tspan><tspan x="128.89" y="0">фоны </tspan><tspan x="164.42" y="0">и</tspan><tspan x="172.01" y="0">ли </tspan><tspan x="189.32" y="0">п</tspan><tspan x="196.74" y="0">ланш</tspan><tspan x="227.65" y="0">е</tspan><tspan x="234.41" y="0">т</tspan><tspan x="239.9" y="0">ы с черно-б</tspan><tspan x="308.61" y="0">е</tspan><tspan x="315.49" y="0">лой </tspan><tspan x="0" y="16.32">к</tspan><tspan x="6.65" y="16.32">а</tspan><tspan x="13.21" y="16.32">р</tspan><tspan x="20.83" y="16.32">т</tspan><tspan x="26.33" y="16.32">ин</tspan><tspan x="41.29" y="16.32">к</tspan><tspan x="47.72" y="16.32">ой, </tspan><tspan x="68.42" y="16.32">с</tspan><tspan x="74.43" y="16.32">о</tspan><tspan x="81.8" y="16.32">д</tspan><tspan x="88.96" y="16.32">е</tspan><tspan x="95.77" y="16.32">р</tspan><tspan x="103.4" y="16.32">ж</tspan><tspan x="112.61" y="16.32">а</tspan><tspan x="119.16" y="16.32">щ</tspan><tspan x="129.3" y="16.32">ей </tspan><tspan x="146.53" y="16.32">э</tspan><tspan x="152.89" y="16.32">леме</tspan><tspan x="182.1" y="16.32">н</tspan><tspan x="189.49" y="16.32">т</tspan><tspan x="194.98" y="16.32">ы анимации.</tspan><tspan x="0" y="32.64">И</tspan><tspan x="9.76" y="32.64">н</tspan><tspan x="17.19" y="32.64">с</tspan><tspan x="23.5" y="32.64">т</tspan><tspan x="29" y="32.64">р</tspan><tspan x="36.6" y="32.64">у</tspan><tspan x="42.94" y="32.64">ме</tspan><tspan x="58.44" y="32.64">н</tspan><tspan x="65.82" y="32.64">т</tspan><tspan x="71.22" y="32.64">арий: </tspan><tspan x="106.28" y="32.64">h</tspan><tspan x="113.78" y="32.64">tml5 ca</tspan><tspan x="155.34" y="32.64">n</tspan><tspan x="162.71" y="32.64">v</tspan><tspan x="169.2" y="32.64">as / j</tspan><tspan x="194.87" y="32.64">a</tspan><tspan x="201.32" y="32.64">v</tspan><tspan x="207.8" y="32.64">asc</tspan><tspan x="225.84" y="32.64">r</tspan><tspan x="230.34" y="32.64">ip</tspan><tspan x="241.26" y="32.64">t</tspan><tspan x="245.72" y="32.64">. </tspan><tspan x="-0.27" y="65.28">О</tspan><tspan x="9.14" y="65.28">сновн</tspan><tspan x="44.35" y="65.28">а</tspan><tspan x="51" y="65.28">я разв</tspan><tspan x="87.58" y="65.28">и</tspan><tspan x="95.17" y="65.28">л</tspan><tspan x="102.07" y="65.28">к</tspan><tspan x="108.72" y="65.28">а воспр</tspan><tspan x="153.61" y="65.28">и</tspan><tspan x="161.2" y="65.28">я</tspan><tspan x="167.9" y="65.28">т</tspan><tspan x="173.4" y="65.28">и</tspan><tspan x="180.98" y="65.28">я: на</tspan><tspan x="207.41" y="65.28">б</tspan><tspan x="214.64" y="65.28">л</tspan><tspan x="221.54" y="65.28">ю</tspan><tspan x="231.03" y="65.28">дающие любой </tspan><tspan x="0" y="81.6">о</tspan><tspan x="7.47" y="81.6">б</tspan><tspan x="14.54" y="81.6">ъе</tspan><tspan x="29.23" y="81.6">к</tspan><tspan x="35.97" y="81.6">т э</tspan><tspan x="50.75" y="81.6">к</tspan><tspan x="57.19" y="81.6">спозиции </tspan><tspan x="116.93" y="81.6">д</tspan><tspan x="124.08" y="81.6">е</tspan><tspan x="130.97" y="81.6">л</tspan><tspan x="137.92" y="81.6">я</tspan><tspan x="144.62" y="81.6">т</tspan><tspan x="149.94" y="81.6">с</tspan><tspan x="156.15" y="81.6">я на </tspan><tspan x="182.64" y="81.6">у</tspan><tspan x="188.93" y="81.6">с</tspan><tspan x="195.24" y="81.6">т</tspan><tspan x="200.64" y="81.6">ановивших с</tspan><tspan x="276.06" y="81.6">в</tspan><tspan x="282.93" y="81.6">язь с </tspan><tspan x="0" y="97.92">неким основоп</tspan><tspan x="89.94" y="97.92">о</tspan><tspan x="97.46" y="97.92">ла</tspan><tspan x="110.91" y="97.92">г</tspan><tspan x="115.96" y="97.92">ающим </tspan><tspan x="161.39" y="97.92">э</tspan><tspan x="167.76" y="97.92">леме</tspan><tspan x="196.97" y="97.92">н</tspan><tspan x="204.35" y="97.92">т</tspan><tspan x="209.67" y="97.92">ом it мира и не </tspan><tspan x="0" y="114.24">у</tspan><tspan x="6.28" y="114.24">с</tspan><tspan x="12.59" y="114.24">т</tspan><tspan x="17.99" y="114.24">ановивших. </tspan><tspan x="90.14" y="114.24">Д</tspan><tspan x="98.9" y="114.24">л</tspan><tspan x="105.85" y="114.24">я первой </tspan><tspan x="162.07" y="114.24">к</tspan><tspan x="168.72" y="114.24">а</tspan><tspan x="175.18" y="114.24">т</tspan><tspan x="180.5" y="114.24">е</tspan><tspan x="187.31" y="114.24">г</tspan><tspan x="192.27" y="114.24">ории воспр</tspan><tspan x="260.89" y="114.24">и</tspan><tspan x="268.47" y="114.24">я</tspan><tspan x="275.18" y="114.24">т</tspan><tspan x="280.67" y="114.24">ие </tspan><tspan x="0" y="130.56">прои</tspan><tspan x="30.1" y="130.56">с</tspan><tspan x="36.31" y="130.56">х</tspan><tspan x="42.42" y="130.56">о</tspan><tspan x="49.79" y="130.56">д</tspan><tspan x="57" y="130.56">и</tspan><tspan x="64.49" y="130.56">т сквозь приз</tspan><tspan x="143.85" y="130.56">м</tspan><tspan x="152.47" y="130.56">у </tspan><tspan x="161.76" y="130.56">т</tspan><tspan x="167.16" y="130.56">а</tspan><tspan x="173.71" y="130.56">к</tspan><tspan x="180.14" y="130.56">о</tspan><tspan x="187.61" y="130.56">г</tspan><tspan x="192.58" y="130.56">о о</tspan><tspan x="210.39" y="130.56">б</tspan><tspan x="217.46" y="130.56">ъе</tspan><tspan x="232.15" y="130.56">к</tspan><tspan x="238.9" y="130.56">т</tspan><tspan x="244.3" y="130.56">а it мира. </tspan><tspan x="300.52" y="130.56">Д</tspan><tspan x="309.28" y="130.56">л</tspan><tspan x="316.22" y="130.56">я </tspan><tspan x="0" y="146.88">в</tspan><tspan x="6.66" y="146.88">т</tspan><tspan x="11.98" y="146.88">орой </tspan><tspan x="45.07" y="146.88">к</tspan><tspan x="51.72" y="146.88">а</tspan><tspan x="58.18" y="146.88">т</tspan><tspan x="63.5" y="146.88">е</tspan><tspan x="70.31" y="146.88">г</tspan><tspan x="75.28" y="146.88">ории а</tspan><tspan x="114.99" y="146.88">сс</tspan><tspan x="127.01" y="146.88">оци</tspan><tspan x="149.49" y="146.88">ат</tspan><tspan x="161.45" y="146.88">ивный ряд име</tspan><tspan x="250.28" y="146.88">е</tspan><tspan x="257.04" y="146.88">т менее </tspan><tspan x="0" y="163.2">опр</tspan><tspan x="22.56" y="163.2">е</tspan><tspan x="29.42" y="163.2">д</tspan><tspan x="36.57" y="163.2">е</tspan><tspan x="43.45" y="163.2">ленное </tspan><tspan x="89.17" y="163.2">р</tspan><tspan x="96.78" y="163.2">у</tspan><tspan x="103.06" y="163.2">с</tspan><tspan x="109.44" y="163.2">ло, </tspan><tspan x="129.5" y="163.2">о</tspan><tspan x="136.87" y="163.2">дна</tspan><tspan x="158.06" y="163.2">к</tspan><tspan x="164.49" y="163.2">о рис</tspan><tspan x="196.21" y="163.2">к</tspan><tspan x="202.82" y="163.2">у</tspan><tspan x="209.1" y="163.2">е</tspan><tspan x="215.86" y="163.2">т не развер</tspan><tspan x="282.96" y="163.2">н</tspan><tspan x="290.33" y="163.2">у</tspan><tspan x="297.04" y="163.2">т</tspan><tspan x="302.53" y="163.2">ь</tspan><tspan x="309.3" y="163.2">с</tspan><tspan x="315.52" y="163.2">я </tspan><tspan x="0" y="179.52">вов</tspan><tspan x="21.07" y="179.52">с</tspan><tspan x="27.08" y="179.52">е б</tspan><tspan x="43.96" y="179.52">е</tspan><tspan x="50.81" y="179.52">з </tspan><tspan x="59.55" y="179.52">д</tspan><tspan x="66.71" y="179.52">о</tspan><tspan x="74.23" y="179.52">лжно</tspan><tspan x="105.09" y="179.52">г</tspan><tspan x="110.05" y="179.52">о </tspan><tspan x="120.4" y="179.52">у</tspan><tspan x="126.68" y="179.52">с</tspan><tspan x="132.78" y="179.52">и</tspan><tspan x="140.37" y="179.52">л</tspan><tspan x="147.26" y="179.52">и</tspan><tspan x="154.85" y="179.52">я. </tspan><tspan x="0" y="212.16">Д</tspan><tspan x="8.63" y="212.16">а</tspan><tspan x="15.27" y="212.16">лее разв</tspan><tspan x="65.63" y="212.16">и</tspan><tspan x="73.12" y="212.16">т</tspan><tspan x="78.62" y="212.16">ие воспр</tspan><tspan x="131.3" y="212.16">и</tspan><tspan x="138.89" y="212.16">я</tspan><tspan x="145.6" y="212.16">т</tspan><tspan x="151.09" y="212.16">и</tspan><tspan x="158.68" y="212.16">я </tspan><tspan x="168.31" y="212.16">д</tspan><tspan x="175.64" y="212.16">л</tspan><tspan x="182.59" y="212.16">я первой </tspan><tspan x="238.81" y="212.16">к</tspan><tspan x="245.46" y="212.16">а</tspan><tspan x="251.92" y="212.16">т</tspan><tspan x="257.24" y="212.16">е</tspan><tspan x="264.05" y="212.16">г</tspan><tspan x="269.02" y="212.16">ории. </tspan><tspan x="304.99" y="212.16">Д</tspan><tspan x="313.75" y="212.16">л</tspan><tspan x="320.7" y="212.16">я </tspan><tspan x="0" y="228.48">в</tspan><tspan x="6.66" y="228.48">т</tspan><tspan x="11.98" y="228.48">орой оно я</tspan><tspan x="77.06" y="228.48">в</tspan><tspan x="83.95" y="228.48">л</tspan><tspan x="90.9" y="228.48">я</tspan><tspan x="97.65" y="228.48">е</tspan><tspan x="104.41" y="228.48">т</tspan><tspan x="109.72" y="228.48">с</tspan><tspan x="115.94" y="228.48">я </tspan><tspan x="125.57" y="228.48">с</tspan><tspan x="131.95" y="228.48">лиш</tspan><tspan x="156.41" y="228.48">к</tspan><tspan x="162.85" y="228.48">ом неопр</tspan><tspan x="218.69" y="228.48">е</tspan><tspan x="225.54" y="228.48">д</tspan><tspan x="232.7" y="228.48">е</tspan><tspan x="239.58" y="228.48">ленным. </tspan><tspan x="0" y="244.8">А</tspan><tspan x="8.23" y="244.8">сс</tspan><tspan x="20.25" y="244.8">оци</tspan><tspan x="42.73" y="244.8">ат</tspan><tspan x="54.69" y="244.8">ивный ряд пр</tspan><tspan x="135.58" y="244.8">е</tspan><tspan x="142.46" y="244.8">ло</tspan><tspan x="156.82" y="244.8">м</tspan><tspan x="165.69" y="244.8">л</tspan><tspan x="172.64" y="244.8">я</tspan><tspan x="179.38" y="244.8">е</tspan><tspan x="186.14" y="244.8">т</tspan><tspan x="191.46" y="244.8">с</tspan><tspan x="197.67" y="244.8">я морф</tspan><tspan x="239.92" y="244.8">о</tspan><tspan x="247.44" y="244.8">ло</tspan><tspan x="261.8" y="244.8">г</tspan><tspan x="266.94" y="244.8">и</tspan><tspan x="274.33" y="244.8">ческим </tspan><tspan x="0" y="261.12">эффе</tspan><tspan x="30.56" y="261.12">к</tspan><tspan x="37.31" y="261.12">т</tspan><tspan x="42.62" y="261.12">ом (п</tspan><tspan x="72.88" y="261.12">о</tspan><tspan x="80.25" y="261.12">дменой </tspan><tspan x="128.28" y="261.12">и</tspan><tspan x="135.87" y="261.12">ли </tspan><tspan x="153.18" y="261.12">с</tspan><tspan x="159.53" y="261.12">дви</tspan><tspan x="181.07" y="261.12">г</tspan><tspan x="186.04" y="261.12">ом) и ви</tspan><tspan x="233.69" y="261.12">з</tspan><tspan x="239.4" y="261.12">у</tspan><tspan x="245.71" y="261.12">а</tspan><tspan x="252.35" y="261.12">лизацией е</tspan><tspan x="318.25" y="261.12">г</tspan><tspan x="323.21" y="261.12">о </tspan><tspan x="0" y="277.44">и</tspan><tspan x="7.59" y="277.44">ли е</tspan><tspan x="31.71" y="277.44">г</tspan><tspan x="36.68" y="277.44">о аспе</tspan><tspan x="73.85" y="277.44">к</tspan><tspan x="80.59" y="277.44">т</tspan><tspan x="85.99" y="277.44">а. </tspan><tspan x="98.25" y="277.44">Э</tspan><tspan x="106.15" y="277.44">т</tspan><tspan x="111.46" y="277.44">о обесп</tspan><tspan x="156.73" y="277.44">е</tspan><tspan x="163.46" y="277.44">чива</tspan><tspan x="191.35" y="277.44">е</tspan><tspan x="198.11" y="277.44">т</tspan><tspan x="203.43" y="277.44">с</tspan><tspan x="209.64" y="277.44">я </tspan><tspan x="219.27" y="277.44">с</tspan><tspan x="225.4" y="277.44">амим названием </tspan><tspan x="0" y="293.76">а</tspan><tspan x="6.55" y="293.76">р</tspan><tspan x="14.18" y="293.76">т</tspan><tspan x="19.31" y="293.76">-о</tspan><tspan x="30.95" y="293.76">б</tspan><tspan x="38.03" y="293.76">ъе</tspan><tspan x="52.71" y="293.76">к</tspan><tspan x="59.46" y="293.76">т</tspan><tspan x="64.86" y="293.76">а. Оно м</tspan><tspan x="112.95" y="293.76">о</tspan><tspan x="120.3" y="293.76">ж</tspan><tspan x="129.29" y="293.76">е</tspan><tspan x="136.05" y="293.76">т б</tspan><tspan x="151.71" y="293.76">ы</tspan><tspan x="160.71" y="293.76">т</tspan><tspan x="166.21" y="293.76">ь </tspan><tspan x="175.86" y="293.76">т</tspan><tspan x="181.26" y="293.76">а</tspan><tspan x="187.81" y="293.76">к</tspan><tspan x="194.6" y="293.76">ж</tspan><tspan x="203.59" y="293.76">е прои</tspan><tspan x="243.38" y="293.76">г</tspan><tspan x="248.53" y="293.76">норировано, </tspan><tspan x="0" y="310.08">ч</tspan><tspan x="6.96" y="310.08">т</tspan><tspan x="12.28" y="310.08">о, веро</tspan><tspan x="54.26" y="310.08">я</tspan><tspan x="60.97" y="310.08">т</tspan><tspan x="66.46" y="310.08">но, прив</tspan><tspan x="116.48" y="310.08">е</tspan><tspan x="123.34" y="310.08">де</tspan><tspan x="137.25" y="310.08">т к р</tspan><tspan x="162.86" y="310.08">е</tspan><tspan x="169.71" y="310.08">з</tspan><tspan x="175.58" y="310.08">к</tspan><tspan x="182.01" y="310.08">о</tspan><tspan x="189.47" y="310.08">м</tspan><tspan x="198.1" y="310.08">у расширению </tspan><tspan x="0" y="326.4">а</tspan><tspan x="6.55" y="326.4">сс</tspan><tspan x="18.58" y="326.4">оци</tspan><tspan x="41.06" y="326.4">ат</tspan><tspan x="53.01" y="326.4">ивно</tspan><tspan x="82.24" y="326.4">г</tspan><tspan x="87.2" y="326.4">о </tspan><tspan x="97.55" y="326.4">с</tspan><tspan x="103.93" y="326.4">лоя с рис</tspan><tspan x="158.26" y="326.4">к</tspan><tspan x="164.7" y="326.4">ом п</tspan><tspan x="191.09" y="326.4">о</tspan><tspan x="198.45" y="326.4">т</tspan><tspan x="203.77" y="326.4">ери и</tspan><tspan x="236.27" y="326.4">н</tspan><tspan x="243.66" y="326.4">т</tspan><tspan x="248.97" y="326.4">ере</tspan><tspan x="270.34" y="326.4">с</tspan><tspan x="276.47" y="326.4">а. </tspan><tspan x="0" y="359.04">Б</tspan><tspan x="7.15" y="359.04">укв</tspan><tspan x="26.87" y="359.04">а</tspan><tspan x="33.51" y="359.04">льный смы</tspan><tspan x="97.89" y="359.04">с</tspan><tspan x="104.27" y="359.04">л it </tspan><tspan x="124.62" y="359.04">э</tspan><tspan x="130.98" y="359.04">леме</tspan><tspan x="160.19" y="359.04">н</tspan><tspan x="167.58" y="359.04">т</tspan><tspan x="172.98" y="359.04">а – 1, е</tspan><tspan x="211.59" y="359.04">г</tspan><tspan x="216.55" y="359.04">о ви</tspan><tspan x="241.23" y="359.04">з</tspan><tspan x="246.95" y="359.04">у</tspan><tspan x="253.26" y="359.04">а</tspan><tspan x="259.89" y="359.04">льное </tspan><tspan x="0" y="375.36">о</tspan><tspan x="7.36" y="375.36">т</tspan><tspan x="12.68" y="375.36">обра</tspan><tspan x="41.62" y="375.36">ж</tspan><tspan x="50.61" y="375.36">е</tspan><tspan x="57.15" y="375.36">ние – 2, смы</tspan><tspan x="127.99" y="375.36">с</tspan><tspan x="134.37" y="375.36">л с н</tspan><tspan x="160.55" y="375.36">а</tspan><tspan x="167.18" y="375.36">л</tspan><tspan x="174.08" y="375.36">о</tspan><tspan x="181.44" y="375.36">ж</tspan><tspan x="190.43" y="375.36">енным морф</tspan><tspan x="265.32" y="375.36">о</tspan><tspan x="272.84" y="375.36">ло</tspan><tspan x="287.21" y="375.36">г</tspan><tspan x="292.35" y="375.36">и</tspan><tspan x="299.73" y="375.36">ческим </tspan><tspan x="0" y="391.68">эффе</tspan><tspan x="30.56" y="391.68">к</tspan><tspan x="37.31" y="391.68">т</tspan><tspan x="42.62" y="391.68">ом – 3 и е</tspan><tspan x="98.44" y="391.68">г</tspan><tspan x="103.4" y="391.68">о ви</tspan><tspan x="128.08" y="391.68">з</tspan><tspan x="133.8" y="391.68">у</tspan><tspan x="140.11" y="391.68">а</tspan><tspan x="146.74" y="391.68">льное </tspan><tspan x="185" y="391.68">о</tspan><tspan x="192.36" y="391.68">т</tspan><tspan x="197.67" y="391.68">обра</tspan><tspan x="226.62" y="391.68">ж</tspan><tspan x="235.61" y="391.68">ение – 4 – </tspan><tspan x="0" y="408">образовыва</tspan><tspan x="71.47" y="408">ю</tspan><tspan x="80.95" y="408">т ме</tspan><tspan x="104.92" y="408">ж</tspan><tspan x="113.91" y="408">с</tspan><tspan x="120.29" y="408">ловесное(-смы</tspan><tspan x="207.93" y="408">с</tspan><tspan x="214.31" y="408">ловое) н</tspan><tspan x="263.92" y="408">а</tspan><tspan x="270.38" y="408">т</tspan><tspan x="275.89" y="408">я</tspan><tspan x="282.63" y="408">ж</tspan><tspan x="291.62" y="408">ение, </tspan><tspan x="0" y="424.32">д</tspan><tspan x="7.15" y="424.32">о</tspan><tspan x="14.62" y="424.32">с</tspan><tspan x="20.93" y="424.32">т</tspan><tspan x="26.43" y="424.32">и</tspan><tspan x="33.96" y="424.32">ж</tspan><tspan x="42.95" y="424.32">ение </tspan><tspan x="74.42" y="424.32">к</tspan><tspan x="80.85" y="424.32">о</tspan><tspan x="88.21" y="424.32">т</tspan><tspan x="93.53" y="424.32">оро</tspan><tspan x="116.2" y="424.32">г</tspan><tspan x="121.17" y="424.32">о и я</tspan><tspan x="148.68" y="424.32">в</tspan><tspan x="155.57" y="424.32">л</tspan><tspan x="162.52" y="424.32">я</tspan><tspan x="169.27" y="424.32">е</tspan><tspan x="176.03" y="424.32">т</tspan><tspan x="181.34" y="424.32">с</tspan><tspan x="187.56" y="424.32">я </tspan><tspan x="197.19" y="424.32">к</tspan><tspan x="203.8" y="424.32">у</tspan><tspan x="210.15" y="424.32">льминацией </tspan><tspan x="0" y="440.64">воспро</tspan><tspan x="42.92" y="440.64">и</tspan><tspan x="50.51" y="440.64">я</tspan><tspan x="57.21" y="440.64">т</tspan><tspan x="62.71" y="440.64">и</tspan><tspan x="70.3" y="440.64">я а</tspan><tspan x="86.48" y="440.64">р</tspan><tspan x="94.11" y="440.64">т</tspan><tspan x="99.24" y="440.64">-о</tspan><tspan x="110.88" y="440.64">б</tspan><tspan x="117.95" y="440.64">ъе</tspan><tspan x="132.64" y="440.64">к</tspan><tspan x="139.38" y="440.64">т</tspan><tspan x="144.78" y="440.64">а. </tspan></text><text transform="translate(260.47 190.02)" style="font-size:36px;fill:#231f20;font-family:Myriad Pro">i<tspan x="8.42" y="0">t</tspan><tspan x="20.23" y="0">.p</tspan><tspan x="48.17" y="0">r</tspan><tspan x="60.08" y="0">imiti</tspan><tspan x="127.29" y="0">v</tspan><tspan x="144.25" y="0">es</tspan></text></svg>